<svg width="50" height="50" viewBox="0 0 50 50" fill="none" xmlns="http://www.w3.org/2000/svg">
<rect width="50" height="50" rx="8" fill="white"/>
<path fill-rule="evenodd" clip-rule="evenodd" d="M24.7454 28.6968L17.4129 39.0958C19.6608 40.3103 22.2307 41 24.9581 41C30.6769 41 35.7028 37.9685 38.5212 33.4244C33.5828 33.0247 28.8898 31.4147 24.7454 28.6968ZM40.2553 29.5662C35.5051 29.4385 30.9771 28.035 27.0196 25.4714L35.693 13.1706C38.9009 16.0992 40.9173 20.3181 40.9173 25C40.9173 26.5859 40.686 28.1187 40.2553 29.5662ZM24.9581 9C16.1591 9 8.99988 16.178 8.99988 25C8.99988 29.6716 11.0074 33.8822 14.203 36.8101L32.479 10.8907C30.2369 9.68456 27.6757 9 24.9581 9Z" fill="#121212"/>
</svg>
