<svg width="50" height="50" viewBox="0 0 50 50" fill="none" xmlns="http://www.w3.org/2000/svg">
<rect width="50" height="50" rx="8" fill="none"/>
<path fill-rule="evenodd" clip-rule="evenodd" d="M24.7454 28.6968L17.413 39.0958C19.6609 40.3103 22.2308 41 24.9582 41C30.677 41 35.7029 37.9685 38.5213 33.4244C33.5829 33.0247 28.8899 31.4147 24.7454 28.6968ZM40.2554 29.5662C35.5051 29.4386 30.9771 28.035 27.0197 25.4714L35.6931 13.1706C38.901 16.0993 40.9174 20.3181 40.9174 25C40.9174 26.5859 40.686 28.1187 40.2554 29.5662ZM24.9582 9.00001C16.1592 9.00001 8.99993 16.178 8.99993 25C8.99993 29.6716 11.0075 33.8822 14.203 36.8101L32.479 10.8907C30.2369 9.68457 27.6758 9.00001 24.9582 9.00001Z" fill="url(#paint0_linear_101_392)"/>
<defs>
<linearGradient id="paint0_linear_101_392" x1="3.4203" y1="21.0412" x2="35.3927" y2="35.9205" gradientUnits="userSpaceOnUse">
<stop offset="0.0002" stop-color="#E8154E"/>
<stop offset="1" stop-color="#FF8C64"/>
</linearGradient>
</defs>
</svg>
